<?xml version="1.0" encoding="us-ascii" standalone="no"?><svg xmlns="http://www.w3.org/2000/svg" xmlns:xlink="http://www.w3.org/1999/xlink" contentStyleType="text/css" height="444px" preserveAspectRatio="none" style="width:623px;height:444px;background:#FFFFFF;" version="1.1" viewBox="0 0 623 444" width="623px" zoomAndPan="magnify"><defs/><g><g id="header"><rect fill="#F1F1F1" height="50" rx="12.5" ry="12.5" style="stroke:#181818;stroke-width:0.5;" width="70" x="255.5" y="7"/><line style="stroke:#181818;stroke-width:0.5;" x1="255.5" x2="325.5" y1="33.2969" y2="33.2969"/><text fill="#000000" font-family="sans-serif" font-size="14" lengthAdjust="spacing" textLength="50" x="265.5" y="24.9951">header</text></g><g id="index"><rect fill="#F1F1F1" height="50" rx="12.5" ry="12.5" style="stroke:#181818;stroke-width:0.5;" width="59" x="162" y="134"/><line style="stroke:#181818;stroke-width:0.5;" x1="162" x2="221" y1="160.2969" y2="160.2969"/><text fill="#000000" font-family="sans-serif" font-size="14" lengthAdjust="spacing" textLength="39" x="172" y="151.9951">index</text></g><g id="partyAdding"><rect fill="#F1F1F1" height="50" rx="12.5" ry="12.5" style="stroke:#181818;stroke-width:0.5;" width="113" x="7" y="261"/><line style="stroke:#181818;stroke-width:0.5;" x1="7" x2="120" y1="287.2969" y2="287.2969"/><text fill="#000000" font-family="sans-serif" font-size="14" lengthAdjust="spacing" textLength="93" x="17" y="278.9951">party-adding</text></g><g id="partyConsulting"><rect fill="#F1F1F1" height="50" rx="12.5" ry="12.5" style="stroke:#181818;stroke-width:0.5;" width="139" x="319" y="261"/><line style="stroke:#181818;stroke-width:0.5;" x1="319" x2="458" y1="287.2969" y2="287.2969"/><text fill="#000000" font-family="sans-serif" font-size="14" lengthAdjust="spacing" textLength="119" x="329" y="278.9951">party-consulting</text></g><g id="roundContinuing"><rect fill="#F1F1F1" height="50" rx="12.5" ry="12.5" style="stroke:#181818;stroke-width:0.5;" width="143" x="372" y="388"/><line style="stroke:#181818;stroke-width:0.5;" x1="372" x2="515" y1="414.2969" y2="414.2969"/><text fill="#000000" font-family="sans-serif" font-size="14" lengthAdjust="spacing" textLength="123" x="382" y="405.9951">round-continuing</text></g><g id="about"><rect fill="#F1F1F1" height="50" rx="12.5" ry="12.5" style="stroke:#181818;stroke-width:0.5;" width="62" x="262.5" y="134"/><line style="stroke:#181818;stroke-width:0.5;" x1="262.5" x2="324.5" y1="160.2969" y2="160.2969"/><text fill="#000000" font-family="sans-serif" font-size="14" lengthAdjust="spacing" textLength="42" x="272.5" y="151.9951">about</text></g><!--link header to index--><g id="link_header_index"><path d="M255.477,40.464 C230.655,47.78 199.096,61.659 183.5,87 C175.856,99.419 176.92,115.405 180.306,129.063 " fill="none" id="header-to-index" style="stroke:#181818;stroke-width:1.0;"/><polygon fill="#181818" points="181.647,133.978,183.1373,124.2425,180.3311,129.1543,175.4193,126.3481,181.647,133.978" style="stroke:#181818;stroke-width:1.0;"/><text fill="#000000" font-family="sans-serif" font-size="13" lengthAdjust="spacing" textLength="10" x="184.5" y="100.0669">""</text></g><!--link index to header--><g id="link_index_header"><path d="M210.53,133.973 C227.016,113.157 250.882,83.023 268.248,61.096 " fill="none" id="index-to-header" style="stroke:#5555FF;stroke-width:1.0;"/><polygon fill="#5555FF" points="271.412,57.101,262.688,61.6718,268.3072,61.0202,268.9587,66.6394,271.412,57.101" style="stroke:#5555FF;stroke-width:1.0;"/></g><!--link header to partyConsulting--><g id="link_header_partyConsulting"><path d="M325.846,50.452 C340.197,59.379 355.487,71.636 364.5,87 C395.603,140.023 395.11,214.725 391.885,255.54 " fill="none" id="header-to-partyConsulting" style="stroke:#181818;stroke-width:1.0;"/><polygon fill="#181818" points="391.436,260.827,396.1827,252.1975,391.8588,255.8449,388.2114,251.521,391.436,260.827" style="stroke:#181818;stroke-width:1.0;"/><text fill="#000000" font-family="sans-serif" font-size="13" lengthAdjust="spacing" textLength="67" x="393.5" y="163.5669">"partie/:id"</text></g><!--link partyConsulting to header--><g id="link_partyConsulting_header"><path d="M417.462,260.859 C449.628,230.979 493.999,178.583 469.5,134 C440.957,82.058 374.099,55 330.661,42.402 " fill="none" id="partyConsulting-to-header" style="stroke:#5555FF;stroke-width:1.0;"/><polygon fill="#5555FF" points="325.747,41.009,333.3157,47.311,330.5576,42.372,335.4966,39.614,325.747,41.009" style="stroke:#5555FF;stroke-width:1.0;"/></g><!--link header to about--><g id="link_header_about"><path d="M291.078,57.101 C291.57,77.593 292.278,107.076 292.801,128.884 " fill="none" id="header-to-about" style="stroke:#181818;stroke-width:1.0;"/><polygon fill="#181818" points="292.923,133.973,296.7058,124.8796,292.803,128.9744,288.7082,125.0716,292.923,133.973" style="stroke:#181818;stroke-width:1.0;"/><text fill="#000000" font-family="sans-serif" font-size="13" lengthAdjust="spacing" textLength="62" x="293.5" y="100.0669">"apropos"</text></g><!--link about to header--><g id="link_about_header"><path d="M288.611,133.914 C286.953,124.61 285.315,113.851 284.5,104 C283.365,90.287 284.349,75.086 285.825,62.279 " fill="none" id="about-to-header" style="stroke:#5555FF;stroke-width:1.0;"/><polygon fill="#5555FF" points="286.435,57.315,281.3669,65.7598,285.825,62.2777,289.3072,66.7358,286.435,57.315" style="stroke:#5555FF;stroke-width:1.0;"/></g><!--link partyAdding to header--><g id="link_partyAdding_header"><path d="M58.9537,260.936 C57.3086,246.837 57.0118,228.926 62.5,214 C88.0711,144.458 111.267,131.514 170.5,87 C194.727,68.793 226.068,54.955 250.645,45.848 " fill="none" id="partyAdding-to-header" style="stroke:#5555FF;stroke-width:1.0;"/><polygon fill="#5555FF" points="255.466,44.089,245.6403,43.4134,250.7684,45.8015,248.3803,50.9296,255.466,44.089" style="stroke:#5555FF;stroke-width:1.0;"/></g><!--link roundContinuing to header--><g id="link_roundContinuing_header"><path d="M515.126,394.0436 C532.943,386.0146 549.95,374.4888 560.5,358 C616.11,271.087 546.848,225.676 499.5,134 C487.3,110.379 484.381,102.1 462.5,87 C422.603,59.467 368.023,45.483 331.132,38.732 " fill="none" id="roundContinuing-to-header" style="stroke:#5555FF;stroke-width:1.0;"/><polygon fill="#5555FF" points="325.821,37.788,333.9813,43.3024,330.7437,38.6637,335.3824,35.4261,325.821,37.788" style="stroke:#5555FF;stroke-width:1.0;"/></g><!--link index to partyAdding--><g id="link_index_partyAdding"><path d="M161.794,176.673 C146.09,186.342 127.099,199.466 112.5,214 C99.9125,226.531 88.4717,242.689 79.8166,256.424 " fill="none" id="index-to-partyAdding" style="stroke:#181818;stroke-width:1.0;"/><polygon fill="#181818" points="76.9906,260.981,85.1339,255.4415,79.6263,256.7321,78.3357,251.2244,76.9906,260.981" style="stroke:#181818;stroke-width:1.0;"/><text fill="#000000" font-family="sans-serif" font-size="13" lengthAdjust="spacing" textLength="105" x="113.5" y="227.0669">"partie/nouvelle"</text></g><!--link partyAdding to index--><g id="link_partyAdding_index"><path d="M63.3855,260.699 C64.4954,245.818 68.1394,227.169 78.5,214 C97.91,189.329 131.367,175.31 156.854,167.775 " fill="none" id="partyAdding-to-index" style="stroke:#181818;stroke-width:1.0;"/><polygon fill="#181818" points="161.839,166.353,152.087,164.9748,157.0307,167.7243,154.2812,172.668,161.839,166.353" style="stroke:#181818;stroke-width:1.0;"/><text fill="#000000" font-family="sans-serif" font-size="13" lengthAdjust="spacing" textLength="10" x="79.5" y="227.0669">""</text></g><!--link index to partyConsulting--><g id="link_index_partyConsulting"><path d="M210.265,184.185 C222.899,199.208 240.646,218.054 259.5,231 C276.106,242.402 295.498,252.086 314.126,259.967 " fill="none" id="index-to-partyConsulting" style="stroke:#181818;stroke-width:1.0;"/><polygon fill="#181818" points="318.843,261.932,312.0733,254.7786,314.2275,260.0092,308.9969,262.1634,318.843,261.932" style="stroke:#181818;stroke-width:1.0;"/><text fill="#000000" font-family="sans-serif" font-size="13" lengthAdjust="spacing" textLength="67" x="260.5" y="227.0669">"partie/:id"</text></g><!--link partyConsulting to index--><g id="link_partyConsulting_index"><path d="M374.611,260.953 C364.645,245.599 349.929,226.332 332.5,214 C298.768,190.134 282.921,199.207 244.5,184 C238.438,181.601 232.063,178.885 225.919,176.166 " fill="none" id="partyConsulting-to-index" style="stroke:#181818;stroke-width:1.0;"/><polygon fill="#181818" points="221.275,174.091,227.8603,181.4145,225.84,176.1307,231.1238,174.1104,221.275,174.091" style="stroke:#181818;stroke-width:1.0;"/><text fill="#000000" font-family="sans-serif" font-size="13" lengthAdjust="spacing" textLength="10" x="352.5" y="227.0669">""</text></g><!--link partyConsulting to roundContinuing--><g id="link_partyConsulting_roundContinuing"><path d="M399.105,311.101 C408.159,331.68 421.203,361.3254 430.81,383.16 " fill="none" id="partyConsulting-to-roundContinuing" style="stroke:#181818;stroke-width:1.0;"/><polygon fill="#181818" points="432.928,387.9727,432.9648,378.1239,430.9144,383.3961,425.6422,381.3457,432.928,387.9727" style="stroke:#181818;stroke-width:1.0;"/><text fill="#000000" font-family="sans-serif" font-size="13" lengthAdjust="spacing" textLength="131" x="420.5" y="354.0669">"partie/:id/continuer"</text></g><!--link roundContinuing to partyConsulting--><g id="link_roundContinuing_partyConsulting"><path d="M371.76,389.579 C357.755,381.8328 344.843,371.5564 336.5,358 C327.423,343.2519 336.577,327.645 349.598,314.831 " fill="none" id="roundContinuing-to-partyConsulting" style="stroke:#181818;stroke-width:1.0;"/><polygon fill="#181818" points="353.361,311.294,344.0637,314.5437,349.7179,314.7186,349.543,320.3727,353.361,311.294" style="stroke:#181818;stroke-width:1.0;"/><text fill="#000000" font-family="sans-serif" font-size="13" lengthAdjust="spacing" textLength="67" x="337.5" y="354.0669">"partie/:id"</text></g><!--SRC=[XP7B3i8W44NtV0N1DUdAJHScngG_OLoWJ9IaWOQ7qR-Nyh10QsG5TqvcxXsCPHRm0nW7ZKnu2CdXbUuJq_Pzv5p8EsO6a_2cB0YaP4vA6ZVQchjznSngvIJthDTSPeCsiqdCBBigPn6AtZ2bX-WCzvYGKctdzt6yWAuNl293nxdE9gqcPGYA7Ubvj_Td62uUIhiea_-i5rEtc3Rj5XCzRLMIjvmmULdIIUMUC8v0Qg_rdfecY-5cIwiuTPks7EfjlAfbbpuKD5dluP-T3m00]--></g></svg>